<?xml version="1.0" encoding="UTF-8"?>
<svg id="Layer_2" data-name="Layer 2" xmlns="http://www.w3.org/2000/svg" xmlns:xlink="http://www.w3.org/1999/xlink" viewBox="0 0 960 1024">
  <defs>
    <style>
      .cls-1 {
        fill: url(#linear-gradient-2);
      }

      .cls-2 {
        fill: url(#linear-gradient-6);
      }

      .cls-3 {
        fill: url(#linear-gradient-11);
      }

      .cls-4 {
        filter: url(#drop-shadow-1);
      }

      .cls-5 {
        fill: url(#linear-gradient-10);
      }

      .cls-6 {
        fill: url(#linear-gradient-5);
      }

      .cls-7 {
        clip-path: url(#clippath);
      }

      .cls-8 {
        fill: none;
      }

      .cls-9 {
        fill: url(#linear-gradient-7);
      }

      .cls-10 {
        fill: url(#linear-gradient-9);
      }

      .cls-11 {
        fill: url(#linear-gradient-3);
      }

      .cls-12 {
        fill: url(#linear-gradient);
      }

      .cls-13 {
        fill: url(#linear-gradient-4);
      }

      .cls-14 {
        fill: url(#linear-gradient-8);
      }

      .cls-15 {
        fill: url(#linear-gradient-12);
      }

      .cls-16 {
        fill: url(#linear-gradient-13);
      }
    </style>
    <clipPath id="clippath">
      <rect class="cls-8" x="-32" y="32" width="1024" height="960" transform="translate(-32 992) rotate(-90)"/>
    </clipPath>
    <filter id="drop-shadow-1" filterUnits="userSpaceOnUse">
      <feOffset dx="5" dy="5"/>
      <feGaussianBlur result="blur" stdDeviation="5"/>
      <feFlood flood-color="#000" flood-opacity=".2"/>
      <feComposite in2="blur" operator="in"/>
      <feComposite in="SourceGraphic"/>
    </filter>
    <linearGradient id="linear-gradient" x1="1285.65" y1="515.8" x2="1403.44" y2="515.8" gradientTransform="translate(-1274.04 617.64) rotate(-45)" gradientUnits="userSpaceOnUse">
      <stop offset="0" stop-color="#3f8ce2"/>
      <stop offset="1" stop-color="#162c9a"/>
    </linearGradient>
    <linearGradient id="linear-gradient-2" x1="767.73" y1="738.9" x2="1327.53" y2="738.9" gradientTransform="translate(1385.96 547.42) rotate(-180)" xlink:href="#linear-gradient"/>
    <linearGradient id="linear-gradient-3" x1="1063.93" y1="442.17" x2="1330.81" y2="442.17" gradientTransform="translate(1385.96 547.42) rotate(-180)" xlink:href="#linear-gradient"/>
    <linearGradient id="linear-gradient-4" x1="1204.99" y1="61.15" x2="1412.3" y2="61.15" gradientTransform="translate(959.43 1454.86) rotate(-135)" xlink:href="#linear-gradient"/>
    <linearGradient id="linear-gradient-5" x1="1210.7" y1="295.39" x2="1477.58" y2="295.39" gradientTransform="translate(1385.96 547.42) rotate(-180)" gradientUnits="userSpaceOnUse">
      <stop offset="0" stop-color="#a8a8a8"/>
      <stop offset="1" stop-color="#ebebeb"/>
    </linearGradient>
    <linearGradient id="linear-gradient-6" x1="1211.5" y1="589.94" x2="1329.3" y2="589.94" gradientTransform="translate(-1199.9 438.65) rotate(-45)" xlink:href="#linear-gradient-5"/>
    <linearGradient id="linear-gradient-7" x1="1137.26" y1="217.03" x2="1255.06" y2="217.03" gradientTransform="translate(-809.48 1022.75) rotate(-45)" xlink:href="#linear-gradient"/>
    <linearGradient id="linear-gradient-8" x1="1389.82" y1="1198.25" x2="1573.01" y2="1198.25" gradientTransform="translate(-1020.02 1028.3) rotate(-45)" xlink:href="#linear-gradient"/>
    <linearGradient id="linear-gradient-9" x1="1493.9" y1="1301.88" x2="1677.08" y2="1301.88" gradientTransform="translate(-1270.5 1132.69) rotate(-45)" xlink:href="#linear-gradient-5"/>
    <linearGradient id="linear-gradient-10" x1="1113.79" y1="1248.17" x2="1296.98" y2="1248.17" gradientTransform="translate(-910.04 521.79) rotate(-45)" xlink:href="#linear-gradient-5"/>
    <linearGradient id="linear-gradient-11" x1="1220.72" y1="1353.98" x2="1508.55" y2="1353.98" gradientTransform="translate(2073.05 -653.34) rotate(90)" xlink:href="#linear-gradient"/>
    <linearGradient id="linear-gradient-12" x1="1547.79" y1="1461.39" x2="1831.53" y2="1461.39" gradientTransform="translate(2073.05 -653.34) rotate(90)" xlink:href="#linear-gradient"/>
    <linearGradient id="linear-gradient-13" x1="1479.34" y1="1409.17" x2="1562.74" y2="1409.17" gradientTransform="translate(-1408.1 946.81) rotate(-45)" xlink:href="#linear-gradient"/>
  </defs>
  <g id="Graphic_Elements" data-name="Graphic Elements">
    <g class="cls-7">
      <g class="cls-4">
        <g>
          <rect class="cls-12" x="-5.03" y="-14.82" width="92.89" height="92.89" rx="16.38" ry="16.38" transform="translate(48.34 83.28) rotate(-135)"/>
          <path class="cls-1" d="m348.21-467.28l265.92,265.92c5.46,5.46,5.46,14.31,0,19.76L348.21,84.33c-5.46,5.46-14.31,5.46-19.76,0L62.53-181.6c-5.46-5.46-5.46-14.31,0-19.76l265.92-265.92c5.46-5.46,14.31-5.46,19.76,0Z"/>
          <path class="cls-11" d="m198.47-24.09l119.46,119.46c5.46,5.46,5.46,14.31,0,19.76l-119.46,119.46c-5.46,5.46-14.31,5.46-19.76,0L59.24,115.14c-5.46-5.46-5.46-14.31,0-19.76L178.71-24.09c5.46-5.46,14.31-5.46,19.76,0Z"/>
          <rect class="cls-13" x="-.07" y="408.88" width="154.78" height="154.78" rx="13.97" ry="13.97" transform="translate(-321.2 197.1) rotate(-45)"/>
          <path class="cls-6" d="m51.7,122.68l119.46,119.46c5.46,5.46,5.46,14.31,0,19.76l-119.46,119.46c-5.46,5.46-14.31,5.46-19.76,0l-119.46-119.46c-5.46-5.46-5.46-14.31,0-19.76L31.94,122.68c5.46-5.46,14.31-5.46,19.76,0Z"/>
          <rect class="cls-2" x="69.11" y="-88.96" width="92.89" height="92.89" rx="16.38" ry="16.38" transform="translate(227.33 9.14) rotate(-135)"/>
          <rect class="cls-9" x="143.35" y="283.95" width="92.89" height="92.89" rx="16.38" ry="16.38" transform="translate(90.38 698.23) rotate(-135)"/>
        </g>
        <g>
          <rect class="cls-14" x="805.23" y="758.51" width="139.12" height="139.12" rx="16.38" ry="16.38" transform="translate(2078.9 795.04) rotate(135)"/>
          <rect class="cls-10" x="701.61" y="862.58" width="139.12" height="139.12" rx="16.38" ry="16.38" transform="translate(1975.6 1045.97) rotate(135)"/>
          <rect class="cls-5" x="755.32" y="482.48" width="139.12" height="139.12" rx="16.38" ry="16.38" transform="translate(1798.51 359.12) rotate(135)"/>
          <path class="cls-3" d="m579.24,701.41l129.94-129.94c5.46-5.46,14.31-5.46,19.76,0l129.94,129.94c5.46,5.46,5.46,14.31,0,19.76l-129.94,129.94c-5.46,5.46-14.31,5.46-19.76,0l-129.94-129.94c-5.46-5.46-5.46-14.31,0-19.76Z"/>
          <path class="cls-15" d="m473.88,1026.43l127.89-127.89c5.46-5.46,14.31-5.46,19.76,0l127.89,127.89c5.46,5.46,5.46,14.31,0,19.76l-127.89,127.89c-5.46,5.46-14.31,5.46-19.76,0l-127.89-127.89c-5.46-5.46-5.46-14.31,0-19.76Z"/>
          <rect class="cls-16" x="629.6" y="833.42" width="68.57" height="68.57" rx="16.38" ry="16.38" transform="translate(1746.87 1011.83) rotate(135)"/>
        </g>
      </g>
    </g>
  </g>
</svg>