<?xml version="1.0" encoding="utf-8"?>
<!-- Generator: Adobe Illustrator 27.2.0, SVG Export Plug-In . SVG Version: 6.00 Build 0)  -->
<svg version="1.1" xmlns="http://www.w3.org/2000/svg" xmlns:xlink="http://www.w3.org/1999/xlink" x="0px" y="0px"
	 viewBox="0 0 500 500" style="enable-background:new 0 0 500 500;" xml:space="preserve">
<style type="text/css">
	.st0{fill:none;}
	.st1{fill:none;stroke:#212121;stroke-width:3;stroke-linecap:round;stroke-linejoin:round;stroke-miterlimit:10;}
	.st2{fill:#FFFFFF;}
	.st3{fill:url(#SVGID_1_);}
	.st4{fill:url(#SVGID_00000088106410295443814200000008275461382683268743_);}
</style>
<pattern  width="180" height="164.56" patternUnits="userSpaceOnUse" id="New_Pattern_4" viewBox="174.12 -172.16 180 164.56" style="overflow:visible;">
	<g>
		<rect x="174.12" y="-172.16" class="st0" width="180" height="164.56"/>
		<g>
			<path class="st1" d="M234.92-2.43c1.02-3.36,2.39-6.62,4.06-9.71"/>
		</g>
		<g>
			<path class="st1" d="M347.01-166.77c2.16,3.29,6.44,4.32,10.31,5.08c2.9,0.57,5.79,1.13,8.69,1.7"/>
		</g>
		<g>
			<path class="st1" d="M218.25-105.19c-1.7-3.03-1.06-7.18,1.47-9.56c1.96-1.84,4.69-2.55,7.3-3.2c2.34-0.58,4.67-1.19,7.02-1.74
				c4.16-0.96,4.48,1.93,5.44,4.19c0.97,2.26,2.57,4.69,2.41,7.02c-0.2,2.87-10.79-3.15-15.95,4.9c-0.8,1.25-1.23,8.78-1.74,10.99
				c-0.8,3.41-5.81-1.18-8.99-2.65c-3.18-1.47-6.45-3.33-9.93-2.92c-2.48,0.29-8.33,5.44-8.75,5.93c-2.12,2.47-1.1,6.98,2.04,7.86
				s3.7-0.96,6.91-1.53c4.54-0.79,8.33,2.03,12.51,3.98c3.63,1.69,7.84,4.58,11.17,2.36c2.97-1.97,2.56-6.36,3.73-9.73
				c1.28-3.67,4.68-6.27,8.34-7.56c3.66-1.29,7.61-1.45,11.49-1.6"/>
			<path class="st1" d="M292.89-98.26c1.12,3.03-0.07,6.54-2.22,8.95c-2.15,2.41-5.11,3.92-8.06,5.24
				c-3.35,1.49-7.17,2.82-10.59,1.51c-1.49-0.57-2.75-1.6-3.99-2.6c-2.42-1.98-4.17-4.5-5.32-7.41c-1.68-4.24-1.91-9.25,2.04-18.1
				c0.88-1.98,2.54-3.43,3.96-5.08c1.41-1.65,2.13-4.5,0.36-5.76c-0.68-0.48-1.56-0.58-2.39-0.59c-2.78-0.06-5.56,0.58-8.04,1.84
				c-3.13,1.59-6.27,4.24-9.68,3.39c-4.32-1.09-5.2-7.49-2.43-10.98c2.77-3.49,7.52-4.64,11.93-5.21c2.51-0.32,5.03-0.53,7.56-0.56
				c6.73-0.07,14.18,1.63,18,7.17c1.02,1.48,1.74,3.28,1.49,5.07c-0.27,1.89-1.56,3.45-2.86,4.84c-4.09,4.4-9.02,8.72-10,14.65
				c-0.44,2.69,0.11,5.69,2.09,7.56c1.98,1.87,5.8,0.4,7.36-0.59c4.91-3.13,0.63-9.49,7.45-15.53c3.14-2.78,2.66-8.52,4.33-11.63
				c1.67-3.11,4.01-9.75,1.65-10.49c-2.81-0.89-5.96-0.54-8.31-2.32c-2.31-1.74-3.91-4.28-6.18-6.08c-3.75-2.99-8.8-3.62-13.57-4.15
				c-5.98-0.65-12.22-1.28-17.86,0.8c-6.65,2.44-12.58,8.56-19.54,7.26c-3.47-0.65-6.82-3.15-10.21-2.15
				c-3.42,1.01-4.78,6.02-2.34,8.62c4,4.27,11.31-0.28,16.9,1.43"/>
			<path class="st1" d="M314.75-111.56c-1.36,2.63,0.16,6.04,2.02,8.21c1.86,2.17,4.21,4.09,4.91,7.06c0.7,2.97-0.48,6.05-1.63,8.82
				c-2.8,6.75-10.9,20.27-15.55,23.67"/>
			<path class="st1" d="M301.74-74.21c-3.87,3.64-8.22,6.76-12.9,9.27c-2.42,1.3-5.02,2.51-6.72,4.67c-1.7,2.16-2.09,5.66-0.03,7.48
				c1.09,0.97,2.61,1.26,4.06,1.39c3.64,0.31,7.36-0.27,10.73-1.67c2.92-1.21,5.96-3.07,9.01-2.22c3.82,1.06,5.3,5.68,8.35,8.21
				c4.97,4.11,12.95,1.24,18.57,4.41c2.43,1.37,7.02,2.66,7.86,2.92c0.29,0.09,0.53,0.28,0.84,0.25c2.47-0.19,4.99-0.97,7.38-0.3
				c3.58,1,5.56,4.94,6.01,8.64c0.44,3.7-0.2,7.46,0.28,11.15c0.51,3.94,2.27,7.72,2.15,11.7"/>
			<path class="st1" d="M321.55-58.5c1.87-0.7,3.94,0.29,5.53,1.49c1.59,1.2,3.07,2.69,5,3.19c2.07,0.54,4.24-0.15,6.27-0.84
				c2.55-0.87,5.27-1.85,6.87-4.02c1.92-2.6,1.72-6.17,2.89-9.19c2.13-5.48,6.13-8.38,7.06-14.19c0.38-2.41-2.33-14.26-10.9-2.37
				c-0.79,1.09-0.99,2.5-1.33,3.8c-0.76,2.89-1.51,5.78-2.27,8.67c-0.3,1.16-0.63,2.37-1.45,3.24c-1.25,1.34-3.29,1.53-5.13,1.51
				c-4.66-0.06-11.21,2.37-12.25-2.17c-0.84-3.67,9.27-6.23,9.7-12.66c0.32-4.77,2.57-9.3,6.06-12.57
				c3.49-3.27,7.85-5.45,12.24-7.34c1.59-0.68,3.3-1.43,4.14-2.94c0.58-1.04,0.64-2.28,0.62-3.47c-0.11-6.36,1.84-11.11-3.6-14.41
				c-2.2-1.34-5.38,1.19-7.01,3.19c-2.66,3.26-2.4,5.4-3.14,8.74c-0.97,4.35-4.14,5.37-6.61,6.12c-3.71,1.14-5.89-3.19-7.41-6.77
				c-1.52-3.58-1.11-10.9-4.44-12.91c-4.07-2.45-9.25-0.25-13.45,1.95c-3.33,1.74-5.83,3.54-7,7.11c-0.74,2.28-0.33,4.76,0.1,7.12
				c0.63,3.48,4.2,9.35,5.54,12.62c1.53,3.72,1.5,8.65-3.76,10.15c-3.87,1.11-9.14,5.1-12.56,7.24c-7.12,4.46-15.84,9.05-23.47,5.54
				c-3.73-1.72-6.38-5.1-9.38-7.91c-3-2.81-7-5.25-11.01-4.35c-4.01,0.9-6.5,6.8-3.23,9.3c1,0.76,2.26,1.04,3.47,1.39
				c8.1,2.38,10.8,13.47,19.15,14.2c3.16,0.28,5.32,6.16,1.4,9.24c-2.9,2.28-6.69,11.52-10.31,10.79c-2.36-0.48-3.8-2.97-4.13-5.35
				c-0.33-2.38,0.15-4.8,0.07-7.21c-0.21-6.55-4.98-12.7-11.27-14.54c-6.18-1.8-12.97,0.31-19.18-1.38c-5.2-1.41-9.6-5.39-14.97-5.9
				c-2.88-0.27-5.75,0.49-8.63,0.61c-6.72,0.29-8.51,0.8-13.27-3.95c-2.31-2.31-7.4,3.93-3.7,7.87c0,0,2.93,3.17,3.42,18.37
				c0.49,15.19,2.72,24.71,10.56,20.3c7.84-4.41-2.1-12.54,3.78-22.84c5.88-10.29,13.6-8.73,20.36-5.84
				c4.95,2.12-6.84,5.61-8.86,10.6c-0.84,2.09-1.34,8.6-1.15,10.84c0.45,5.31-0.32,7.39,0.71,12.62c0.17,0.88,0.37,1.79,0.91,2.49
				c1.37,1.78,4.12,1.46,6.23,0.72c1.66-0.58,3.44-1.48,4.02-3.14c0.54-1.55-0.13-3.23-0.59-4.81c-1.5-5.1-0.71-10.82,2.11-15.32
				c2.82-4.5,7.63-7.71,12.87-8.58"/>
			<path class="st1" d="M277.16-44.62c-3.64,2.52-5.16,7.6-6.84,9.97c-2.58,3.64-6.13,6.78-10.44,7.96
				c-4.31,1.18-9.4,0.03-12.14-3.49c-1.45-1.86-2.14-4.19-3.14-6.32c-1-2.14-2.51-4.26-4.77-4.95c-2.26-0.69-5.21,0.84-5.15,3.2"/>
			<path class="st1" d="M186.02-4.1c7.54-0.22,19.03-7.38,26.52-6.42c2.98,0.38,5.77,1.91,8.77,1.96c2.59,0.05,5.1-1.01,7.22-2.5
				c1.64-1.15,3.16-2.68,3.66-4.63c0.38-1.49,0.12-3.07,0.16-4.61c0.1-3.57,1.94-7.04,4.84-9.13"/>
			<path class="st1" d="M198.35-21.39c-5.07,2.18-10.53,3.47-16.04,3.78"/>
			<path class="st1" d="M244.38-20.75c2.37,6.04,10.19,8.37,16.47,6.76c6.29-1.61,11.37-6.1,16.2-10.45
				c1.12-1.01,2.25-2.04,3.04-3.32c0.83-1.36,1.23-2.93,1.97-4.34c0.74-1.41,2-2.72,3.59-2.81c0.77-0.05,1.54,0.2,2.23,0.57
				c4.35,2.29,5.12,8.16,4.75,13.06c-0.37,4.9-2.21,7.93,0.55,12"/>
			<path class="st1" d="M282.18-19.14c-0.52,5.87-0.43,11.79,0.29,17.64"/>
			<path class="st1" d="M306.51-9.26c-0.22-2.12-0.44-4.23-0.66-6.35c-0.31-3.02-0.67-6.16-2.26-8.75c-1.11-1.8-2.75-3.22-3.96-4.96
				c-1.56-2.25-2.34-5.04-2.16-7.78c0.03-0.45,0.1-0.94,0.41-1.27c0.32-0.33,0.8-0.42,1.26-0.44c5.64-0.33,9.47,5.71,14.76,7.67
				c1.57,0.58,3.24,0.79,4.89,1.11c4.16,0.81,8.16,2.34,12.34,3.09c4.17,0.74,8.88,2.07,13,1.05c4.55-1.12,4.57,10.27,1.84,12.1
				c-5.26,3.54-12.63,2.86-18.43,0.29c-4.06-1.79-7.63-4.83-11.99-5.65"/>
			<path class="st1" d="M347.82-49.29c1.86,0.33,3.68-0.58,5.45-1.24c1.77-0.66,3.94-1.04,5.4,0.16"/>
			<path class="st1" d="M346.54-137.14c-3.39,1.06-6.29,3.61-7.78,6.84c-0.52,1.12-1.21,2.11-1.89,3.14
				c-2.04,3.11-4.74,2.22-5.58-1.39c-0.49-2.1-1.27-4.09-1.14-6.24c0.13-2.15,0.43-4.35-0.17-6.42c-0.67-2.3-2.42-4.38-2.2-6.76
				c0.12-1.3,0.82-2.46,1.5-3.57c2.76-4.48,5.51-8.97,8.27-13.45"/>
			<path class="st1" d="M317.97-134.73c-0.33-1.97-3.13-2.29-4.97-1.51c-1.84,0.78-3.6,2.18-5.58,1.91
				c-2.95-0.39-4.09-3.95-6.06-6.18c-2.81-3.17-7.48-3.63-11.37-5.29c-2.97-1.27-5.55-3.3-8.39-4.83
				c-13.39-7.24-32.17-6.35-46.58-0.07c-12.76,5.56-17.76-4.99-28.09,3.7c-5.45,4.59-7.01,15.57-3.24,21.62
				c2.14,3.43,5.98,6.21,6.03,10.25c0.04,3.33-2.7,6.11-5.72,7.51c-3.02,1.4-6.39,1.81-9.55,2.87c-4.23,1.41-11,4.37-9.55,15.43"/>
			<path class="st1" d="M326.41-166.17c-6.74,3.73-10.64,12.01-9.22,19.59"/>
			<path class="st1" d="M309.52-146.12c0.65-5.17-4.67-9.25-9.78-10.29c-5.11-1.04-10.51-0.29-15.5-1.8
				c-2.43-0.74-4.67-1.99-6.99-3.03c-10.32-4.62-22.53-4.85-33.02-0.62"/>
			<path class="st1" d="M294.13-166.46c6.52,1.67,13.78,0.08,19.02-4.15"/>
			<path class="st1" d="M337.63-148.41c6.27-0.52,13.39-5.39,17.22-4.63"/>
			<path class="st1" d="M167.01-166.77c2.16,3.29,6.44,4.32,10.31,5.08c2.9,0.57,5.79,1.13,8.69,1.7"/>
			<path class="st1" d="M183.29-152.4c-1.36,0.01-2.62,0.9-3.32,2.07c-0.7,1.17-0.92,2.57-0.9,3.93c0.07,5.26,5.17,16.91,4.38,22.11
				c-0.78,5.15-1.59,12.82,4.17,10.58c1.48-0.58,3.8-3.32,4.84-4.53c2.19-2.54,0.63-6.38-0.31-9.6c-1.59-5.45-1.04-11.26-0.47-16.91
				c0.3-2.94,0.66-6.04,2.44-8.39c1.99-2.62,6.35-6.17,9.48-7.18c7.6-2.45,14.85-2.51,22.35,0.22"/>
			<path class="st1" d="M234.92-166.98c1.02-3.36,2.39-6.62,4.06-9.71"/>
			<path class="st1" d="M195.22-65.16c-0.28,3.23-1.12,5.49-0.83,8.79"/>
		</g>
		<g>
			<path class="st1" d="M121.74-74.21c-3.87,3.64-8.22,6.76-12.9,9.27c-2.42,1.3-5.02,2.51-6.72,4.67c-1.7,2.16-2.09,5.66-0.03,7.48
				c1.09,0.97,2.61,1.26,4.06,1.39c3.64,0.31,7.36-0.27,10.73-1.67c2.92-1.21,5.96-3.07,9.01-2.22c3.82,1.06,5.3,5.68,8.35,8.21
				c4.97,4.11,12.96,1.24,18.57,4.41c2.43,1.37,7.02,2.66,7.86,2.92c0.29,0.09,0.53,0.28,0.84,0.25c2.47-0.19,4.99-0.97,7.38-0.3
				c3.58,1,5.56,4.94,6.01,8.64c0.44,3.7-0.2,7.46,0.28,11.15c0.51,3.94,2.27,7.72,2.15,11.7"/>
			<path class="st1" d="M141.55-58.5c1.87-0.7,3.94,0.29,5.53,1.49c1.59,1.2,3.07,2.69,5,3.19c2.07,0.54,4.24-0.15,6.27-0.84
				c2.55-0.87,5.27-1.85,6.87-4.02c1.92-2.6,1.72-6.17,2.89-9.19c2.13-5.48,6.13-8.38,7.06-14.19c0.39-2.41-2.33-14.26-10.9-2.37
				c-0.79,1.09-0.99,2.5-1.33,3.8c-0.76,2.89-1.51,5.78-2.27,8.67c-0.3,1.16-0.63,2.37-1.45,3.24c-1.25,1.34-3.29,1.53-5.13,1.51
				c-4.66-0.06-11.21,2.37-12.25-2.17c-0.84-3.67,9.27-6.23,9.7-12.66c0.32-4.77,2.57-9.3,6.06-12.57
				c3.49-3.27,7.85-5.45,12.24-7.34c1.59-0.68,3.3-1.43,4.14-2.94c0.58-1.04,0.64-2.28,0.62-3.47c-0.11-6.36,1.84-11.11-3.6-14.41
				c-2.2-1.34-5.38,1.19-7.01,3.19c-2.66,3.26-2.4,5.4-3.14,8.74c-0.97,4.35-4.14,5.37-6.61,6.12c-3.71,1.14-5.89-3.19-7.41-6.77
				c-1.52-3.58-1.11-10.9-4.44-12.91c-4.07-2.45-9.25-0.25-13.45,1.95c-3.33,1.74-5.83,3.54-7,7.11c-0.74,2.28-0.33,4.76,0.1,7.12
				c0.63,3.48,4.2,9.35,5.54,12.62c1.53,3.72,1.5,8.65-3.76,10.15c-3.87,1.11-9.14,5.1-12.56,7.24c-7.12,4.46-15.84,9.05-23.47,5.54
				c-3.73-1.72-6.38-5.1-9.38-7.91c-3-2.81-7-5.25-11.01-4.35c-4.01,0.9-6.5,6.8-3.23,9.3c1,0.76,2.26,1.04,3.47,1.39
				c8.1,2.38,10.8,13.47,19.15,14.2c3.16,0.28,5.32,6.16,1.4,9.24C85.3-48.51,81.5-39.27,77.89-40c-2.36-0.48-3.8-2.97-4.13-5.35
				c-0.33-2.38,0.15-4.8,0.07-7.21c-0.21-6.55-4.98-12.7-11.27-14.54c-6.18-1.8-12.97,0.31-19.18-1.38c-5.2-1.41-9.6-5.39-14.97-5.9
				c-2.88-0.27-5.75,0.49-8.63,0.61c-6.72,0.29-8.51,0.8-13.27-3.95c-2.31-2.31-7.4,3.93-3.7,7.87c0,0,2.93,3.17,3.42,18.37
				c0.49,15.19,2.72,24.71,10.56,20.3c7.84-4.41-2.1-12.54,3.78-22.84c5.88-10.29,13.6-8.73,20.36-5.84
				c4.95,2.12-6.84,5.61-8.86,10.6c-0.84,2.09-1.34,8.6-1.15,10.84c0.45,5.31-0.32,7.39,0.71,12.62c0.17,0.88,0.37,1.79,0.91,2.49
				c1.37,1.78,4.12,1.46,6.23,0.72c1.66-0.58,3.44-1.48,4.02-3.14c0.54-1.55-0.13-3.23-0.59-4.81c-1.5-5.1-0.71-10.82,2.11-15.32
				s7.63-7.71,12.87-8.58"/>
			<path class="st1" d="M167.82-49.29c1.86,0.33,3.68-0.58,5.45-1.24c1.77-0.66,3.94-1.04,5.4,0.16"/>
			<path class="st1" d="M157.63-148.41c6.27-0.52,13.39-5.39,17.22-4.63"/>
		</g>
		<g>
			<path class="st1" d="M301.74-238.77c-3.87,3.64-8.22,6.76-12.9,9.27c-2.42,1.3-5.02,2.51-6.72,4.67
				c-1.7,2.16-2.09,5.66-0.03,7.48c1.09,0.97,2.61,1.26,4.06,1.39c3.64,0.31,7.36-0.27,10.73-1.67c2.92-1.21,5.96-3.07,9.01-2.22
				c3.82,1.06,5.3,5.68,8.35,8.21c4.97,4.11,12.95,1.24,18.57,4.41c2.43,1.37,7.02,2.66,7.86,2.92c0.29,0.09,0.53,0.28,0.84,0.25
				c2.47-0.19,4.99-0.97,7.38-0.3c3.58,1,5.56,4.94,6.01,8.64c0.44,3.7-0.2,7.46,0.28,11.15c0.51,3.94,2.27,7.72,2.15,11.7"/>
			<path class="st1" d="M186.02-168.66c7.54-0.22,19.03-7.38,26.52-6.42c2.98,0.38,5.77,1.91,8.77,1.96c2.59,0.05,5.1-1.01,7.22-2.5
				c1.64-1.15,3.16-2.68,3.66-4.63c0.38-1.49,0.12-3.07,0.16-4.61c0.1-3.57,1.94-7.04,4.84-9.13"/>
			<path class="st1" d="M282.18-183.69c-0.52,5.87-0.43,11.79,0.29,17.64"/>
		</g>
		<g>
			<path class="st1" d="M121.74-238.77c-3.87,3.64-8.22,6.76-12.9,9.27c-2.42,1.3-5.02,2.51-6.72,4.67
				c-1.7,2.16-2.09,5.66-0.03,7.48c1.09,0.97,2.61,1.26,4.06,1.39c3.64,0.31,7.36-0.27,10.73-1.67c2.92-1.21,5.96-3.07,9.01-2.22
				c3.82,1.06,5.3,5.68,8.35,8.21c4.97,4.11,12.96,1.24,18.57,4.41c2.43,1.37,7.02,2.66,7.86,2.92c0.29,0.09,0.53,0.28,0.84,0.25
				c2.47-0.19,4.99-0.97,7.38-0.3c3.58,1,5.56,4.94,6.01,8.64c0.44,3.7-0.2,7.46,0.28,11.15c0.51,3.94,2.27,7.72,2.15,11.7"/>
		</g>
	</g>
</pattern>
<pattern  width="180" height="210.57" patternUnits="userSpaceOnUse" id="New_Pattern_6" viewBox="36.64 -219.13 180 210.57" style="overflow:visible;">
	<g>
		<rect x="36.64" y="-219.13" class="st0" width="180" height="210.57"/>
		<g>
			<polyline class="st1" points="46.01,-13.07 56.59,-12.87 58.7,-11.83 59.49,-8.97 59.87,-2.29 50.36,-1.52 			"/>
			<line class="st1" x1="134.33" y1="-11.74" x2="124.41" y2="-1.5"/>
		</g>
		<g>
			<polyline class="st1" points="78.16,-57.91 104.27,-60.27 109.58,-58.94 110.42,-55.79 111.21,-43.77 110.22,-37.53 
				99.69,-34.76 87.19,-32.86 66.33,-41.51 			"/>
			<polyline class="st1" points="97.42,-48.89 82.3,-47.35 74.52,-47.36 65.04,-52.5 60.95,-59.05 63,-66.02 61.57,-67.14 
				50.24,-73.54 			"/>
			<polyline class="st1" points="83.2,-68.52 50.59,-88.35 55.66,-94.2 70.05,-86.19 			"/>
			<polyline class="st1" points="78.82,-102.91 80.34,-87.23 94.74,-70.6 110.34,-70.95 114.21,-83.62 110.34,-93.48 100.49,-82.06 
							"/>
			<polyline class="st1" points="93.03,-91.31 93.61,-108.73 113.05,-105.25 130.3,-127.7 120.66,-127.77 113.53,-119.18 
				99.15,-119.45 			"/>
			<polyline class="st1" points="126.02,-74.03 125.19,-93.9 126.98,-104.61 136.35,-106.14 137.82,-102.38 140.15,-73.02 			"/>
			<polyline class="st1" points="123.2,-64.72 155.95,-67.24 181.75,-78.56 			"/>
			<polyline class="st1" points="151.69,-76.89 164.13,-107.7 165.58,-116.69 163.11,-120.93 155.63,-130.82 148.73,-138.94 
				123.49,-147.07 120.03,-145.99 117.91,-143.69 107.7,-129.57 			"/>
			<polyline class="st1" points="136.08,-135.27 147.22,-125.76 151.31,-119.51 150.3,-100.7 			"/>
			<path class="st1" d="M79.61-114.38c0,0,15.06-17.51,20.63-27.6c1.43-2.59,3.43-8.17,3.43-8.17l1.46-8.05"/>
			<polyline class="st1" points="80.81,-132.66 38.99,-114.04 40.41,-107.99 68.31,-100.38 68.31,-106.98 			"/>
			<line class="st1" x1="59.49" y1="-112.28" x2="69.53" y2="-116.79"/>
			<polyline class="st1" points="118.65,-55.02 128.87,-49.25 131.22,-22.63 			"/>
			<polyline class="st1" points="119.52,-37.27 121.09,-14.32 107.36,-23.14 			"/>
			<polyline class="st1" points="95.42,-23.93 76.38,-21.39 74.77,-20.87 73.85,-19.27 74.34,-14.83 75.83,-14.4 104.67,-10.22 			
				"/>
			<polyline class="st1" points="68.72,-27.22 52.37,-23.2 51.46,-56.77 41.32,-60.42 43.18,-33.15 			"/>
			<line class="st1" x1="41.78" y1="-98.51" x2="41.78" y2="-77.91"/>
			<polyline class="st1" points="139.86,-53.53 169.19,-59.41 172.92,-60.14 176.02,-54.33 175.9,-53.15 174.72,-52.31 
				142.57,-39.08 			"/>
			<polyline class="st1" points="141.46,-30.03 186.12,-43.4 189.04,-45.21 189.15,-48.11 188.56,-70.63 			"/>
			<polyline class="st1" points="166.13,-82.35 176.22,-103.22 188.23,-112.34 			"/>
			<polyline class="st1" points="179.78,-121.77 161.67,-139.45 156.21,-147.92 162.05,-152.83 163.25,-152.07 181.04,-137.5 			"/>
			<polyline class="st1" points="118.77,-166.27 118.74,-159.24 119.12,-157.51 120.34,-156.79 146.11,-155.33 148.08,-155.71 
				150.73,-158.48 158.33,-170.59 			"/>
			<polyline class="st1" points="82.77,-143.32 98.18,-169.97 100.85,-173.1 132.96,-174.36 136.96,-165.11 			"/>
			<polyline class="st1" points="85.82,-172.14 74.58,-151.76 71,-144.65 60.11,-136.83 43.62,-128.49 42.8,-138.5 43.39,-140.47 
				44.54,-141.26 63.12,-150.66 67.67,-164.56 			"/>
			<polyline class="st1" points="63.51,-172.15 63.79,-192.91 51.33,-189.31 51.56,-157.9 40.17,-151.51 40.17,-175.13 			"/>
			<line class="st1" x1="75.46" y1="-178.74" x2="75.28" y2="-192.87"/>
			<polyline class="st1" points="178.23,-153.36 185.37,-163.78 201.07,-167.25 200.89,-175.52 200.42,-176.98 184.65,-177.63 
				175.02,-196.03 			"/>
			<polyline class="st1" points="161.82,-191.04 170.78,-175.07 172.45,-169.79 170.89,-162.52 			"/>
			<polyline class="st1" points="117.82,-193.42 145.91,-192.95 147.56,-192.62 148.39,-191.05 147.73,-179.76 144.86,-175.51 
				144.86,-167.92 			"/>
			<path class="st1" d="M151.35-213.61"/>
			<polyline class="st1" points="99.92,-182.52 101.08,-205.44 132.05,-204.51 151.84,-213.63 			"/>
			<polyline class="st1" points="88.9,-181.08 88.35,-203.89 49.14,-201.43 			"/>
			<polyline class="st1" points="150.98,-199.9 165.22,-210.03 181.45,-210.31 182.87,-209.79 183.91,-208.32 193.88,-187.68 			"/>
			<polyline class="st1" points="199.48,-156.16 190.62,-148.8 191.89,-124.39 199.07,-121.99 			"/>
			<polyline class="st1" points="186.02,-90.8 193.34,-100.45 203.37,-106.29 			"/>
			<line class="st1" x1="198.66" y1="-89.3" x2="199.74" y2="-58.4"/>
			<polyline class="st1" points="205.1,-94.69 211.4,-93.25 211.43,-69.6 			"/>
			<polyline class="st1" points="144.33,-21.54 144.83,-15.02 145.45,-13.2 147.01,-12.74 167.4,-13.48 169.41,-14.36 169.76,-16.1 
				169.66,-27.91 186.37,-32.03 			"/>
			<polyline class="st1" points="181.5,-23.15 181.99,-18.15 182.59,-16.42 184.8,-16.01 218.53,-16.24 			"/>
			<polyline class="st1" points="200.54,-132.78 208.55,-141.62 209.46,-145.37 210.06,-181.83 211.97,-188.76 220.23,-191.17 			
				"/>
			<polyline class="st1" points="202.76,-195.65 201.62,-207.4 202.87,-212.56 205.96,-213.39 217.97,-213.58 217.97,-203.33 			"/>
			<polyline class="st1" points="46.01,-223.64 56.59,-223.44 58.7,-222.41 59.49,-219.55 59.87,-212.86 50.36,-212.1 			"/>
			<polyline class="st1" points="213.2,-52.48 202.36,-46.46 200.89,-45.1 200.52,-43.07 201.15,-27.76 211.97,-27.91 			"/>
			<line class="st1" x1="215.02" y1="-129.08" x2="205.77" y2="-117.82"/>
			<line class="st1" x1="76.12" y1="-213.73" x2="86.78" y2="-213.73"/>
			<line class="st1" x1="134.33" y1="-222.32" x2="124.41" y2="-212.07"/>
			<line class="st1" x1="112.9" y1="-183.91" x2="121.29" y2="-183.91"/>
		</g>
		<g>
			<polyline class="st1" points="1.5,-23.15 1.99,-18.15 2.59,-16.42 4.8,-16.01 38.53,-16.24 			"/>
			<polyline class="st1" points="20.54,-132.78 28.55,-141.62 29.46,-145.37 30.06,-181.83 31.97,-188.76 40.23,-191.17 			"/>
			<polyline class="st1" points="22.76,-195.65 21.62,-207.4 22.87,-212.56 25.96,-213.39 37.97,-213.58 37.97,-203.33 			"/>
		</g>
	</g>
</pattern>
<g id="BACKGROUND">
	<rect x="-4.46" y="-8.08" class="st2" width="171.93" height="515.79"/>
</g>
<g id="PATTERN">
	<pattern  id="SVGID_1_" xlink:href="#New_Pattern_6" patternTransform="matrix(1.4592 0 0 1.4592 3358.77 3209.4167)">
	</pattern>
	<rect x="-12.2" y="-114.98" class="st3" width="243.19" height="729.58"/>
	
		<pattern  id="SVGID_00000062891667469510933820000012133811605058053515_" xlink:href="#New_Pattern_4" patternTransform="matrix(1.6872 0 0 1.6872 4681.0605 5268.5859)">
	</pattern>
	
		<rect x="230.99" y="-165.93" style="fill:url(#SVGID_00000062891667469510933820000012133811605058053515_);" width="281.21" height="843.62"/>
</g>
</svg>
